<?xml version="1.0" encoding="UTF-8"?>
<!DOCTYPE svg
  PUBLIC '-//W3C//DTD SVG 1.1//EN'
  'http://www.w3.org/Graphics/SVG/1.1/DTD/svg11.dtd'>
<svg version="1.1" xmlns="http://www.w3.org/2000/svg">
    <!--Autogenerated with pyBarcode 0.6b1-->
    <rect height="15.000mm" style="fill:black;" width="0.330mm" x="6.500mm" y="1.000mm"/>
    <rect height="15.000mm" style="fill:white;" width="0.330mm" x="6.830mm" y="1.000mm"/>
    <rect height="15.000mm" style="fill:black;" width="0.330mm" x="7.160mm" y="1.000mm"/>
    <rect height="15.000mm" style="fill:white;" width="0.330mm" x="7.490mm" y="1.000mm"/>
    <rect height="15.000mm" style="fill:black;" width="0.330mm" x="7.820mm" y="1.000mm"/>
    <rect height="15.000mm" style="fill:black;" width="0.330mm" x="8.150mm" y="1.000mm"/>
    <rect height="15.000mm" style="fill:black;" width="0.330mm" x="8.480mm" y="1.000mm"/>
    <rect height="15.000mm" style="fill:black;" width="0.330mm" x="8.810mm" y="1.000mm"/>
    <rect height="15.000mm" style="fill:white;" width="0.330mm" x="9.140mm" y="1.000mm"/>
    <rect height="15.000mm" style="fill:black;" width="0.330mm" x="9.470mm" y="1.000mm"/>
    <rect height="15.000mm" style="fill:white;" width="0.330mm" x="9.800mm" y="1.000mm"/>
    <rect height="15.000mm" style="fill:black;" width="0.330mm" x="10.130mm" y="1.000mm"/>
    <rect height="15.000mm" style="fill:black;" width="0.330mm" x="10.460mm" y="1.000mm"/>
    <rect height="15.000mm" style="fill:black;" width="0.330mm" x="10.790mm" y="1.000mm"/>
    <rect height="15.000mm" style="fill:black;" width="0.330mm" x="11.120mm" y="1.000mm"/>
    <rect height="15.000mm" style="fill:white;" width="0.330mm" x="11.450mm" y="1.000mm"/>
    <rect height="15.000mm" style="fill:black;" width="0.330mm" x="11.780mm" y="1.000mm"/>
    <rect height="15.000mm" style="fill:white;" width="0.330mm" x="12.110mm" y="1.000mm"/>
    <rect height="15.000mm" style="fill:black;" width="0.330mm" x="12.440mm" y="1.000mm"/>
    <rect height="15.000mm" style="fill:white;" width="0.330mm" x="12.770mm" y="1.000mm"/>
    <rect height="15.000mm" style="fill:white;" width="0.330mm" x="13.100mm" y="1.000mm"/>
    <rect height="15.000mm" style="fill:white;" width="0.330mm" x="13.430mm" y="1.000mm"/>
    <rect height="15.000mm" style="fill:white;" width="0.330mm" x="13.760mm" y="1.000mm"/>
    <rect height="15.000mm" style="fill:black;" width="0.330mm" x="14.090mm" y="1.000mm"/>
    <rect height="15.000mm" style="fill:white;" width="0.330mm" x="14.420mm" y="1.000mm"/>
    <rect height="15.000mm" style="fill:black;" width="0.330mm" x="14.750mm" y="1.000mm"/>
    <rect height="15.000mm" style="fill:white;" width="0.330mm" x="15.080mm" y="1.000mm"/>
    <rect height="15.000mm" style="fill:white;" width="0.330mm" x="15.410mm" y="1.000mm"/>
    <rect height="15.000mm" style="fill:white;" width="0.330mm" x="15.740mm" y="1.000mm"/>
    <rect height="15.000mm" style="fill:white;" width="0.330mm" x="16.070mm" y="1.000mm"/>
    <rect height="15.000mm" style="fill:black;" width="0.330mm" x="16.400mm" y="1.000mm"/>
    <rect height="15.000mm" style="fill:white;" width="0.330mm" x="16.730mm" y="1.000mm"/>
    <rect height="15.000mm" style="fill:white;" width="0.330mm" x="17.060mm" y="1.000mm"/>
    <rect height="15.000mm" style="fill:white;" width="0.330mm" x="17.390mm" y="1.000mm"/>
    <rect height="15.000mm" style="fill:white;" width="0.330mm" x="17.720mm" y="1.000mm"/>
    <rect height="15.000mm" style="fill:black;" width="0.330mm" x="18.050mm" y="1.000mm"/>
    <rect height="15.000mm" style="fill:white;" width="0.330mm" x="18.380mm" y="1.000mm"/>
    <rect height="15.000mm" style="fill:black;" width="0.330mm" x="18.710mm" y="1.000mm"/>
    <rect height="15.000mm" style="fill:white;" width="0.330mm" x="19.040mm" y="1.000mm"/>
    <rect height="15.000mm" style="fill:black;" width="0.330mm" x="19.370mm" y="1.000mm"/>
    <rect height="15.000mm" style="fill:white;" width="0.330mm" x="19.700mm" y="1.000mm"/>
    <rect height="15.000mm" style="fill:black;" width="0.330mm" x="20.030mm" y="1.000mm"/>
    <rect height="15.000mm" style="fill:white;" width="0.330mm" x="20.360mm" y="1.000mm"/>
    <rect height="15.000mm" style="fill:black;" width="0.330mm" x="20.690mm" y="1.000mm"/>
    <rect height="15.000mm" style="fill:white;" width="0.330mm" x="21.020mm" y="1.000mm"/>
    <rect height="15.000mm" style="fill:black;" width="0.330mm" x="21.350mm" y="1.000mm"/>
    <rect height="15.000mm" style="fill:white;" width="6.500mm" x="21.680mm" y="1.000mm"/>
    <text style="fill:black;font-size:10pt;text-anchor:middle;" x="10.840mm" y="21.000mm">
        33336
    </text>
</svg>
